<?xml version="1.0" encoding="utf-8"?>
<!-- Generator: Adobe Illustrator 23.0.1, SVG Export Plug-In . SVG Version: 6.00 Build 0)  -->
<svg version="1.1" id="Layer_1" xmlns="http://www.w3.org/2000/svg" xmlns:xlink="http://www.w3.org/1999/xlink" x="0px" y="0px"
	 viewBox="0 0 256.2 58" style="enable-background:new 0 0 256.2 58;" xml:space="preserve">
<style type="text/css">
	.st0{fill:#FFFFFF;}
	.st1{fill:#818285;}
</style>
<g>
	<rect class="st0" width="256.2" height="58"/>
</g>
<g>
	<circle class="st1" cx="14.2" cy="12.1" r="1.1"/>
	<circle class="st1" cx="14.2" cy="21.7" r="1.1"/>
	<circle class="st1" cx="14.2" cy="31.4" r="1.1"/>
	<circle class="st1" cx="21.1" cy="7.2" r="1.1"/>
	<circle class="st1" cx="21.1" cy="16.9" r="1.1"/>
	<circle class="st1" cx="21.1" cy="26.6" r="1.1"/>
	<circle class="st1" cx="21.1" cy="45.9" r="1.1"/>
	<circle class="st1" cx="28" cy="12.1" r="1.1"/>
	<circle class="st1" cx="28" cy="21.7" r="1.1"/>
	<circle class="st1" cx="28" cy="31.4" r="1.1"/>
	<circle class="st1" cx="34.9" cy="7.2" r="1.1"/>
	<circle class="st1" cx="34.9" cy="16.9" r="1.1"/>
	<circle class="st1" cx="34.9" cy="26.6" r="1.1"/>
	<circle class="st1" cx="34.9" cy="45.9" r="1.1"/>
	<circle class="st1" cx="41.8" cy="12.1" r="1.1"/>
	<circle class="st1" cx="41.8" cy="21.7" r="1.1"/>
	<circle class="st1" cx="41.8" cy="31.4" r="1.1"/>
	<circle class="st1" cx="48.7" cy="7.2" r="1.1"/>
	<circle class="st1" cx="48.7" cy="16.9" r="1.1"/>
	<circle class="st1" cx="48.7" cy="26.6" r="1.1"/>
	<circle class="st1" cx="48.7" cy="45.9" r="1.1"/>
	<circle class="st1" cx="55.6" cy="12.1" r="1.1"/>
	<circle class="st1" cx="55.6" cy="21.7" r="1.1"/>
	<circle class="st1" cx="55.6" cy="31.4" r="1.1"/>
	<circle class="st1" cx="62.5" cy="7.2" r="1.1"/>
	<circle class="st1" cx="62.5" cy="16.9" r="1.1"/>
	<circle class="st1" cx="62.5" cy="26.6" r="1.1"/>
	<circle class="st1" cx="62.5" cy="45.9" r="1.1"/>
	<circle class="st1" cx="69.4" cy="12.1" r="1.1"/>
	<circle class="st1" cx="69.4" cy="21.7" r="1.1"/>
	<circle class="st1" cx="69.4" cy="31.4" r="1.1"/>
	<circle class="st1" cx="76.3" cy="7.2" r="1.1"/>
	<circle class="st1" cx="76.3" cy="16.9" r="1.1"/>
	<circle class="st1" cx="76.3" cy="26.6" r="1.1"/>
	<circle class="st1" cx="76.3" cy="45.9" r="1.1"/>
	<circle class="st1" cx="83.2" cy="12.1" r="1.1"/>
	<circle class="st1" cx="83.2" cy="21.7" r="1.1"/>
	<circle class="st1" cx="83.2" cy="31.4" r="1.1"/>
	<circle class="st1" cx="90.1" cy="7.2" r="1.1"/>
	<circle class="st1" cx="90.1" cy="16.9" r="1.1"/>
	<circle class="st1" cx="90.1" cy="26.6" r="1.1"/>
	<circle class="st1" cx="90.1" cy="45.9" r="1.1"/>
	<circle class="st1" cx="97" cy="12.1" r="1.1"/>
	<circle class="st1" cx="97" cy="21.7" r="1.1"/>
	<circle class="st1" cx="97" cy="31.4" r="1.1"/>
	<circle class="st1" cx="104" cy="7.2" r="1.1"/>
	<circle class="st1" cx="104" cy="16.9" r="1.1"/>
	<circle class="st1" cx="104" cy="26.6" r="1.1"/>
	<circle class="st1" cx="104" cy="45.9" r="1.1"/>
	<circle class="st1" cx="110.9" cy="12.1" r="1.1"/>
	<circle class="st1" cx="110.9" cy="21.7" r="1.1"/>
	<circle class="st1" cx="110.9" cy="31.4" r="1.1"/>
	<circle class="st1" cx="117.8" cy="7.2" r="1.1"/>
	<circle class="st1" cx="117.8" cy="16.9" r="1.1"/>
	<circle class="st1" cx="117.8" cy="26.6" r="1.1"/>
	<circle class="st1" cx="117.8" cy="45.9" r="1.1"/>
	<circle class="st1" cx="124.7" cy="12.1" r="1.1"/>
	<circle class="st1" cx="124.7" cy="21.7" r="1.1"/>
	<circle class="st1" cx="124.7" cy="31.4" r="1.1"/>
	<circle class="st1" cx="131.6" cy="7.2" r="1.1"/>
	<circle class="st1" cx="131.6" cy="16.9" r="1.1"/>
	<circle class="st1" cx="131.6" cy="26.6" r="1.1"/>
	<circle class="st1" cx="131.6" cy="45.9" r="1.1"/>
	<circle class="st1" cx="138.5" cy="12.1" r="1.1"/>
	<circle class="st1" cx="138.5" cy="21.7" r="1.1"/>
	<circle class="st1" cx="138.5" cy="31.4" r="1.1"/>
	<circle class="st1" cx="145.4" cy="7.2" r="1.1"/>
	<circle class="st1" cx="145.4" cy="16.9" r="1.1"/>
	<circle class="st1" cx="145.4" cy="26.6" r="1.1"/>
	<circle class="st1" cx="145.4" cy="45.9" r="1.1"/>
	<circle class="st1" cx="152.3" cy="12.1" r="1.1"/>
	<circle class="st1" cx="152.3" cy="21.7" r="1.1"/>
	<circle class="st1" cx="152.3" cy="31.4" r="1.1"/>
	<circle class="st1" cx="159.2" cy="7.2" r="1.1"/>
	<circle class="st1" cx="159.2" cy="16.9" r="1.1"/>
	<circle class="st1" cx="159.2" cy="26.6" r="1.1"/>
	<circle class="st1" cx="159.2" cy="45.9" r="1.1"/>
	<circle class="st1" cx="166.1" cy="12.1" r="1.1"/>
	<circle class="st1" cx="166.1" cy="21.7" r="1.1"/>
	<circle class="st1" cx="166.1" cy="31.4" r="1.1"/>
	<circle class="st1" cx="173" cy="7.2" r="1.1"/>
	<circle class="st1" cx="173" cy="16.9" r="1.1"/>
	<circle class="st1" cx="173" cy="26.6" r="1.1"/>
	<circle class="st1" cx="173" cy="45.9" r="1.1"/>
	<circle class="st1" cx="179.9" cy="12.1" r="1.1"/>
	<circle class="st1" cx="179.9" cy="21.7" r="1.1"/>
	<circle class="st1" cx="179.9" cy="31.4" r="1.1"/>
	<circle class="st1" cx="186.8" cy="7.2" r="1.1"/>
	<circle class="st1" cx="186.8" cy="16.9" r="1.1"/>
	<circle class="st1" cx="186.8" cy="26.6" r="1.1"/>
	<circle class="st1" cx="186.8" cy="45.9" r="1.1"/>
	<circle class="st1" cx="193.7" cy="12.1" r="1.1"/>
	<circle class="st1" cx="193.7" cy="21.7" r="1.1"/>
	<circle class="st1" cx="193.7" cy="31.4" r="1.1"/>
	<circle class="st1" cx="200.6" cy="7.2" r="1.1"/>
	<circle class="st1" cx="200.6" cy="16.9" r="1.1"/>
	<circle class="st1" cx="200.6" cy="26.6" r="1.1"/>
	<circle class="st1" cx="200.6" cy="45.9" r="1.1"/>
	<circle class="st1" cx="207.6" cy="12.1" r="1.1"/>
	<circle class="st1" cx="207.6" cy="21.7" r="1.1"/>
	<circle class="st1" cx="207.6" cy="31.4" r="1.1"/>
	<circle class="st1" cx="214.5" cy="7.2" r="1.1"/>
	<circle class="st1" cx="214.5" cy="16.9" r="1.1"/>
	<circle class="st1" cx="214.5" cy="26.6" r="1.1"/>
	<circle class="st1" cx="214.5" cy="45.9" r="1.1"/>
	<circle class="st1" cx="221.4" cy="12.1" r="1.1"/>
	<circle class="st1" cx="221.4" cy="21.7" r="1.1"/>
	<circle class="st1" cx="221.4" cy="31.4" r="1.1"/>
	<circle class="st1" cx="228.3" cy="7.2" r="1.1"/>
	<circle class="st1" cx="228.3" cy="16.9" r="1.1"/>
	<circle class="st1" cx="228.3" cy="26.6" r="1.1"/>
	<circle class="st1" cx="228.3" cy="45.9" r="1.1"/>
	<circle class="st1" cx="235.2" cy="12.1" r="1.1"/>
	<circle class="st1" cx="235.2" cy="21.7" r="1.1"/>
	<circle class="st1" cx="235.2" cy="31.4" r="1.1"/>
	<circle class="st1" cx="242.1" cy="7.2" r="1.1"/>
	<circle class="st1" cx="242.1" cy="16.9" r="1.1"/>
	<circle class="st1" cx="242.1" cy="26.6" r="1.1"/>
	<circle class="st1" cx="242.1" cy="45.9" r="1.1"/>
	<circle class="st1" cx="249" cy="12.1" r="1.1"/>
	<circle class="st1" cx="249" cy="21.7" r="1.1"/>
	<circle class="st1" cx="249" cy="31.4" r="1.1"/>
	<circle class="st1" cx="14.2" cy="41.1" r="1.1"/>
	<circle class="st1" cx="21.1" cy="36.3" r="1.1"/>
	<circle class="st1" cx="28" cy="41.1" r="1.1"/>
	<circle class="st1" cx="34.9" cy="36.3" r="1.1"/>
	<circle class="st1" cx="41.8" cy="41.1" r="1.1"/>
	<circle class="st1" cx="48.7" cy="36.3" r="1.1"/>
	<circle class="st1" cx="55.6" cy="41.1" r="1.1"/>
	<circle class="st1" cx="62.5" cy="36.3" r="1.1"/>
	<circle class="st1" cx="69.4" cy="41.1" r="1.1"/>
	<circle class="st1" cx="76.3" cy="36.3" r="1.1"/>
	<circle class="st1" cx="83.2" cy="41.1" r="1.1"/>
	<circle class="st1" cx="90.1" cy="36.3" r="1.1"/>
	<circle class="st1" cx="97" cy="41.1" r="1.1"/>
	<circle class="st1" cx="104" cy="36.3" r="1.1"/>
	<circle class="st1" cx="110.9" cy="41.1" r="1.1"/>
	<circle class="st1" cx="117.8" cy="36.3" r="1.1"/>
	<circle class="st1" cx="124.7" cy="41.1" r="1.1"/>
	<circle class="st1" cx="131.6" cy="36.3" r="1.1"/>
	<circle class="st1" cx="138.5" cy="41.1" r="1.1"/>
	<circle class="st1" cx="145.4" cy="36.3" r="1.1"/>
	<circle class="st1" cx="152.3" cy="41.1" r="1.1"/>
	<circle class="st1" cx="159.2" cy="36.3" r="1.1"/>
	<circle class="st1" cx="166.1" cy="41.1" r="1.1"/>
	<circle class="st1" cx="173" cy="36.3" r="1.1"/>
	<circle class="st1" cx="179.9" cy="41.1" r="1.1"/>
	<circle class="st1" cx="186.8" cy="36.3" r="1.1"/>
	<circle class="st1" cx="193.7" cy="41.1" r="1.1"/>
	<circle class="st1" cx="200.6" cy="36.3" r="1.1"/>
	<circle class="st1" cx="207.6" cy="41.1" r="1.1"/>
	<circle class="st1" cx="214.5" cy="36.3" r="1.1"/>
	<circle class="st1" cx="221.4" cy="41.1" r="1.1"/>
	<circle class="st1" cx="228.3" cy="36.3" r="1.1"/>
	<circle class="st1" cx="235.2" cy="41.1" r="1.1"/>
	<circle class="st1" cx="242.1" cy="36.3" r="1.1"/>
	<circle class="st1" cx="249" cy="41.1" r="1.1"/>
	<circle class="st1" cx="14.2" cy="50.8" r="1.1"/>
	<circle class="st1" cx="28" cy="50.8" r="1.1"/>
	<circle class="st1" cx="7.3" cy="7.2" r="1.1"/>
	<circle class="st1" cx="7.3" cy="16.9" r="1.1"/>
	<circle class="st1" cx="7.3" cy="26.6" r="1.1"/>
	<circle class="st1" cx="7.3" cy="45.9" r="1.1"/>
	<circle class="st1" cx="7.3" cy="36.3" r="1.1"/>
	<circle class="st1" cx="41.8" cy="50.8" r="1.1"/>
	<circle class="st1" cx="55.6" cy="50.8" r="1.1"/>
	<circle class="st1" cx="69.4" cy="50.8" r="1.1"/>
	<circle class="st1" cx="83.2" cy="50.8" r="1.1"/>
	<circle class="st1" cx="97" cy="50.8" r="1.1"/>
	<circle class="st1" cx="110.9" cy="50.8" r="1.1"/>
	<circle class="st1" cx="124.7" cy="50.8" r="1.1"/>
	<circle class="st1" cx="138.5" cy="50.8" r="1.1"/>
	<circle class="st1" cx="152.3" cy="50.8" r="1.1"/>
	<circle class="st1" cx="166.1" cy="50.8" r="1.1"/>
	<circle class="st1" cx="179.9" cy="50.8" r="1.1"/>
	<circle class="st1" cx="193.7" cy="50.8" r="1.1"/>
	<circle class="st1" cx="207.6" cy="50.8" r="1.1"/>
	<circle class="st1" cx="221.4" cy="50.8" r="1.1"/>
	<circle class="st1" cx="235.2" cy="50.8" r="1.1"/>
	<circle class="st1" cx="249" cy="50.8" r="1.1"/>
</g>
</svg>
